<svg xmlns="http://www.w3.org/2000/svg" width="1120" height="300" viewBox="0 0 1120 300" role="img" aria-labelledby="title desc">
  <title id="title">Damn Vulnerable Agent Asset Corpus</title>
  <desc id="desc">DVAAC wordmark with an evidence ledger mark for an agent asset security benchmark corpus.</desc>
  <defs>
    <filter id="soft-shadow" x="-16" y="-16" width="260" height="260" filterUnits="userSpaceOnUse" color-interpolation-filters="sRGB">
      <feDropShadow dx="0" dy="18" stdDeviation="18" flood-color="#0f172a" flood-opacity="0.16"/>
    </filter>
    <linearGradient id="case-fill" x1="58" y1="56" x2="228" y2="234" gradientUnits="userSpaceOnUse">
      <stop offset="0" stop-color="#0f172a"/>
      <stop offset="1" stop-color="#1f2937"/>
    </linearGradient>
    <linearGradient id="breach" x1="98" y1="190" x2="184" y2="92" gradientUnits="userSpaceOnUse">
      <stop offset="0" stop-color="#f97316"/>
      <stop offset="1" stop-color="#ef4444"/>
    </linearGradient>
  </defs>

  <rect width="1120" height="300" rx="34" fill="#f8fafc"/>
  <rect x="1.5" y="1.5" width="1117" height="297" rx="32.5" fill="none" stroke="#d8e0ea" stroke-width="3"/>

  <g filter="url(#soft-shadow)">
    <path d="M84 72C84 62.0589 92.0589 54 102 54H206C215.941 54 224 62.0589 224 72V182C224 191.941 215.941 200 206 200H102C92.0589 200 84 191.941 84 182V72Z" fill="url(#case-fill)"/>
    <path d="M114 54V43C114 34.1634 121.163 27 130 27H178C186.837 27 194 34.1634 194 43V54" fill="none" stroke="#0f172a" stroke-width="12" stroke-linecap="round"/>
    <path d="M114 54V44C114 39.5817 117.582 36 122 36H186C190.418 36 194 39.5817 194 44V54" fill="none" stroke="#f8fafc" stroke-width="5" stroke-linecap="round" opacity="0.96"/>
    <rect x="104" y="80" width="100" height="84" rx="12" fill="#f8fafc"/>
    <path d="M124 106H184M124 128H184M124 150H168" stroke="#64748b" stroke-width="7" stroke-linecap="round"/>
    <circle cx="124" cy="106" r="5" fill="#14b8a6"/>
    <circle cx="124" cy="128" r="5" fill="#f59e0b"/>
    <circle cx="124" cy="150" r="5" fill="#ef4444"/>
    <path d="M108 181L201 88" stroke="url(#breach)" stroke-width="13" stroke-linecap="round"/>
    <path d="M169 86H204V121" fill="none" stroke="#ef4444" stroke-width="9" stroke-linecap="round" stroke-linejoin="round"/>
  </g>

  <g transform="translate(278 76)">
    <text x="0" y="75" fill="#0f172a" font-family="Inter, ui-sans-serif, system-ui, -apple-system, BlinkMacSystemFont, 'Segoe UI', sans-serif" font-size="86" font-weight="850" letter-spacing="2">DVAAC</text>
    <text x="3" y="119" fill="#334155" font-family="Inter, ui-sans-serif, system-ui, -apple-system, BlinkMacSystemFont, 'Segoe UI', sans-serif" font-size="25" font-weight="760" letter-spacing="1.8">DAMN VULNERABLE AGENT ASSET CORPUS</text>
  </g>

  <g transform="translate(914 76)">
    <rect x="0" y="0" width="132" height="132" rx="24" fill="#ffffff" stroke="#d8e0ea" stroke-width="2"/>
    <g transform="translate(24 24)">
      <rect x="0" y="0" width="14" height="14" rx="4" fill="#14b8a6"/>
      <rect x="24" y="0" width="14" height="14" rx="4" fill="#cbd5e1"/>
      <rect x="48" y="0" width="14" height="14" rx="4" fill="#cbd5e1"/>
      <rect x="72" y="0" width="14" height="14" rx="4" fill="#f59e0b"/>
      <rect x="0" y="24" width="14" height="14" rx="4" fill="#cbd5e1"/>
      <rect x="24" y="24" width="14" height="14" rx="4" fill="#ef4444"/>
      <rect x="48" y="24" width="14" height="14" rx="4" fill="#cbd5e1"/>
      <rect x="72" y="24" width="14" height="14" rx="4" fill="#cbd5e1"/>
      <rect x="0" y="48" width="14" height="14" rx="4" fill="#cbd5e1"/>
      <rect x="24" y="48" width="14" height="14" rx="4" fill="#cbd5e1"/>
      <rect x="48" y="48" width="14" height="14" rx="4" fill="#0f172a"/>
      <rect x="72" y="48" width="14" height="14" rx="4" fill="#cbd5e1"/>
      <rect x="0" y="72" width="14" height="14" rx="4" fill="#cbd5e1"/>
      <rect x="24" y="72" width="14" height="14" rx="4" fill="#cbd5e1"/>
      <rect x="48" y="72" width="14" height="14" rx="4" fill="#cbd5e1"/>
      <rect x="72" y="72" width="14" height="14" rx="4" fill="#14b8a6"/>
    </g>
  </g>
</svg>
